<?xml version="1.0" standalone="no"?><!DOCTYPE svg PUBLIC "-//W3C//DTD SVG 1.1//EN" "http://www.w3.org/Graphics/SVG/1.1/DTD/svg11.dtd"><svg class="icon" width="200px" height="200.00px" viewBox="0 0 1024 1024" version="1.1" xmlns="http://www.w3.org/2000/svg"><path d="M507.912176 10.219561C227.896208 10.219561 1.021956 237.093812 1.021956 517.10978s226.874251 506.89022 506.89022 506.89022 506.89022-226.874251 506.890219-506.89022S787.928144 10.219561 507.912176 10.219561z m0 955.528942c-247.824351 0-448.638723-200.814371-448.638723-448.638723s200.814371-448.638723 448.638723-448.638722S956.550898 269.796407 956.550898 517.10978 755.736527 965.748503 507.912176 965.748503z"  /><path d="M824.207585 339.800399c0-15.840319-12.774451-28.61477-28.614771-28.61477-10.219561 0-18.906188 5.620758-24.015968 13.285429l-338.267465 338.267465-178.331337-178.331337c-11.241517-11.241517-29.125749-11.241517-40.367266 0s-11.241517 29.125749 0 40.367265l218.698603 218.698603 383.233533-383.233533-0.510978-0.510978c5.10978-5.10978 8.175649-12.263473 8.175649-19.928144z" fill="#ffffff" /></svg>