<?xml version="1.0" standalone="no"?><!DOCTYPE svg PUBLIC "-//W3C//DTD SVG 1.1//EN" "http://www.w3.org/Graphics/SVG/1.1/DTD/svg11.dtd"><svg class="icon" width="16px" height="16.00px" viewBox="0 0 1024 1024" version="1.1" xmlns="http://www.w3.org/2000/svg"><path fill="#ff8198" d="M511.999634 0.008777a501.75104 501.75104 0 0 0-199.383868 40.008428 513.819396 513.819396 0 0 0-163.105659 109.492902 513.819396 513.819396 0 0 0-109.492901 163.105659A501.75104 501.75104 0 0 0 0.008777 511.999634c0 70.581597 13.311762 136.994125 40.008429 199.383868a513.819396 513.819396 0 0 0 109.492901 163.105659 513.819396 513.819396 0 0 0 163.105659 109.492902A501.75104 501.75104 0 0 0 511.999634 1023.990492a501.75104 501.75104 0 0 0 199.383869-40.008429 513.819396 513.819396 0 0 0 163.105658-109.492902 513.819396 513.819396 0 0 0 109.492902-163.105659A501.75104 501.75104 0 0 0 1023.990492 511.999634a501.75104 501.75104 0 0 0-40.008429-199.383868 513.819396 513.819396 0 0 0-109.492902-163.105659A513.819396 513.819396 0 0 0 711.383503 40.017205 501.75104 501.75104 0 0 0 511.999634 0.008777z m285.544616 398.767736L424.595481 771.65214a23.624721 23.624721 0 0 1-34.376529 0l-7.460438-7.314155-205.527759-206.771164a23.624721 23.624721 0 0 1 0-34.522813l50.467671-50.46767a23.624721 23.624721 0 0 1 34.44967 0L407.407216 619.152007 712.626909 313.786031a23.624721 23.624721 0 0 1 34.376529 0l50.46767 50.46767a23.624721 23.624721 0 0 1 0 34.376529z"  /></svg>